Coordinates
version=1
nRows=5
nColumns=40
inDegrees=yes

Units are S.I. units (second, meters, Newtons, ...)
Angles are in degrees.

endheader
time	pelvis_tilt	pelvis_list	pelvis_rotation	pelvis_tx	pelvis_ty	pelvis_tz	hip_flexion_r	hip_adduction_r	hip_rotation_r	knee_angle_r	knee_angle_r_beta	ankle_angle_r	subtalar_angle_r	mtp_angle_r	hip_flexion_l	hip_adduction_l	hip_rotation_l	knee_angle_l	knee_angle_l_beta	ankle_angle_l	subtalar_angle_l	mtp_angle_l	lumbar_extension	lumbar_bending	lumbar_rotation	arm_flex_r	arm_add_r	arm_rot_r	elbow_flex_r	pro_sup_r	wrist_flex_r	wrist_dev_r	arm_flex_l	arm_add_l	arm_rot_l	elbow_flex_l	pro_sup_l	wrist_flex_l	wrist_dev_l
     37.50000000	     -3.50874982	     -5.89897019	      5.46020836	      1.08651255	      0.92908789	      0.49542207	     13.59712393	      3.87143161	    -15.40262406	     18.64226254	     18.64226254	     10.02422741	     -4.81722398	     -2.29240429	     31.39884850	    -14.09721091	      2.17235424	     61.29389956	     61.29389956	     10.12347712	    -19.20261832	     17.36030065	    -11.32490608	      6.76023618	      3.32109796	      8.56107428	    -14.89420635	    -12.42943230	     47.38382752	     45.66522209	      0.00000000	      0.00000000	     12.88501177	     -7.08686866	      0.47490046	     41.98638800	     46.03807094	      0.00000000	      0.00000000
     37.51114286	     -3.67947744	     -5.86343988	      5.90813788	      1.08466191	      0.92910992	      0.49579967	     13.06446764	      3.93477874	    -15.55643704	     18.27871221	     18.27871221	     10.35352876	     -4.97988058	     -2.36067074	     32.88107604	    -13.82126697	      2.01975994	     58.62124160	     58.62124160	     10.43432225	    -19.17105940	     17.46211455	    -11.22225778	      6.63537165	      2.63723100	     11.25509520	    -15.03170435	    -12.51125943	     49.71649698	     45.59886969	      0.00000000	      0.00000000	     11.24596323	     -7.21752054	      0.76514833	     39.66465794	     45.97923506	      0.00000000	      0.00000000
     37.52228571	     -3.86383855	     -5.77082537	      6.27310207	      1.08284297	      0.92910870	      0.49614191	     12.51119746	      3.95379865	    -15.64171348	     17.85292101	     17.85292101	     10.67261511	     -5.06083924	     -2.39975221	     34.02254495	    -13.42688354	      1.77479971	     55.50745633	     55.50745633	     10.58205547	    -19.14039427	     17.51518642	    -11.15509306	      6.41846720	      2.44018982	     13.69547043	    -15.42807873	    -12.57364394	     51.81129741	     45.53974828	      0.00000000	      0.00000000	      9.70194161	     -7.14024972	      1.00587385	     37.77763634	     45.92718603	      0.00000000	      0.00000000
     37.53342857	     -3.89608941	     -5.77968420	      6.71883595	      1.08122623	      0.92923059	      0.49634758	     11.76958804	      4.08891286	    -15.87186387	     17.36414711	     17.36414711	     10.96071136	     -5.07503528	     -2.47084271	     34.74694471	    -13.03191124	      1.67145674	     52.00949435	     52.00949435	     10.47580352	    -19.02432129	     17.28645935	    -11.19713452	      6.42517443	      1.58241621	     16.21557869	    -15.34716120	    -12.30878654	     55.23297134	     45.42039425	      0.00000000	      0.00000000	      8.39108538	     -7.24365056	      1.37193269	     34.45606014	     45.86327624	      0.00000000	      0.00000000
     37.54457143	     -3.97851090	     -5.79640380	      7.06664322	      1.07954160	      0.92919386	      0.49646343	     11.13294276	      4.20191133	    -16.05964239	     16.95674970	     16.95674970	     11.23463726	     -4.90214045	     -2.63760477	     35.31263296	    -12.58971339	      1.61489829	     48.26234251	     48.26234251	     10.02820678	    -18.81003368	     16.68483438	    -11.24215262	      6.46514390	      1.50074936	     18.05203284	    -15.86268228	    -11.87383243	     58.90773140	     45.28766162	      0.00000000	      0.00000000	      7.66931917	     -6.99349813	      1.78102689	     30.79693906	     45.80687616	      0.00000000	      0.00000000
